<svg width="46" height="40" viewBox="0 0 46 40" fill="none" xmlns="http://www.w3.org/2000/svg">
<path d="M44.6 18.65L27.1344 0.931256C26.375 0.171881 25.1937 0.171881 24.4344 0.931256C23.675 1.69063 23.675 2.87188 24.4344 3.63126L38.6094 18.0594H2.74999C1.73749 18.0594 0.893738 18.9031 0.893738 19.9156C0.893738 20.9281 1.73749 21.8563 2.74999 21.8563H38.7781L24.4344 36.4531C23.675 37.2125 23.675 38.3938 24.4344 39.1531C24.7719 39.4906 25.2781 39.6594 25.7844 39.6594C26.2906 39.6594 26.7969 39.4906 27.1344 39.0688L44.6 21.35C45.3594 20.5906 45.3594 19.4094 44.6 18.65Z" fill="white"/>
</svg>
