<?xml version="1.0" standalone="no"?>
<!DOCTYPE svg PUBLIC "-//W3C//DTD SVG 20010904//EN"
 "http://www.w3.org/TR/2001/REC-SVG-20010904/DTD/svg10.dtd">
<svg version="1.0" xmlns="http://www.w3.org/2000/svg"
 width="1200.000000pt" height="1200.000000pt" viewBox="0 0 1200.000000 1200.000000"
 preserveAspectRatio="xMidYMid meet">

<g transform="translate(0.000000,1200.000000) scale(0.100000,-0.100000)"
fill="#000000" stroke="none">
<path d="M1449 10491 c-21 -22 -29 -39 -29 -65 0 -44 2285 -9298 2302 -9326
19 -30 74 -53 109 -45 22 5 919 862 3467 3312 1890 1818 3449 3319 3465 3336
20 24 27 42 27 74 0 87 77 60 -1170 419 -619 178 -1147 331 -1175 339 -27 8
-1060 305 -2295 660 -1235 355 -2258 650 -2275 656 -178 57 -2337 669 -2362
669 -25 0 -43 -8 -64 -29z m1219 -514 c519 -150 944 -275 945 -278 3 -7 -1441
-1399 -1451 -1399 -4 0 -115 435 -246 968 -132 532 -241 973 -244 981 -4 10 2
12 24 7 16 -4 454 -129 972 -279z m2340 -674 l893 -257 -33 -31 c-863 -832
-1399 -1345 -1405 -1345 -5 0 -113 429 -242 953 -129 523 -236 957 -239 964
-2 8 17 6 65 -7 37 -11 470 -136 961 -277z m-993 -727 c130 -527 234 -960 233
-962 -4 -3 -1875 532 -1899 543 -12 6 157 174 705 702 396 382 721 690 722
685 2 -5 109 -440 239 -968z m3205 91 c520 -150 945 -276 945 -280 0 -3 -322
-317 -715 -696 -558 -537 -717 -686 -722 -673 -4 10 -111 440 -238 957 -127
517 -233 946 -235 953 -2 6 1 12 8 12 7 -1 437 -123 957 -273z m-935 -746
c130 -524 234 -955 233 -956 -6 -5 -1895 540 -1896 548 -3 11 1422 1381 1425
1371 2 -5 109 -438 238 -963z m3180 99 c501 -144 934 -269 963 -278 l54 -18
-726 -697 c-399 -384 -729 -698 -733 -698 -4 0 -114 429 -244 953 -129 524
-238 965 -242 980 -5 20 -4 26 5 23 7 -2 423 -122 923 -265z m-900 -748 c130
-530 235 -965 233 -967 -5 -6 -1891 535 -1901 544 -4 5 315 319 709 699 395
380 719 691 720 689 0 -1 108 -435 239 -965z m-5342 412 c529 -152 963 -277
965 -279 2 -1 -293 -288 -655 -636 -362 -348 -692 -666 -733 -706 l-76 -72
-237 962 c-131 529 -240 972 -243 985 -4 14 -2 22 6 22 6 0 444 -124 973 -276z
m2170 -620 c452 -130 879 -253 950 -273 l127 -37 -715 -690 c-394 -379 -719
-690 -723 -692 -4 -1 -112 422 -240 940 -128 519 -235 953 -238 966 -4 13 -2
22 6 22 6 0 381 -106 833 -236z m-807 -802 c133 -537 240 -979 238 -981 -7 -7
-1944 554 -1941 562 4 14 1452 1405 1457 1400 3 -2 114 -444 246 -981z m3321
73 c469 -135 855 -245 858 -245 4 0 5 -4 3 -9 -6 -16 -1463 -1412 -1465 -1404
-8 29 -483 1962 -483 1966 0 2 53 -11 118 -30 64 -18 500 -144 969 -278z
m-1049 -735 c132 -536 240 -976 238 -977 -2 -3 -1938 555 -1943 560 -2 2 324
320 724 705 400 386 731 698 734 694 4 -4 115 -446 247 -982z m-3080 -243
c519 -150 944 -276 945 -280 2 -7 -1425 -1388 -1430 -1384 -3 4 -473 1912
-473 1924 0 7 3 13 8 13 4 -1 431 -123 950 -273z m2400 -692 l863 -249 -28
-28 c-98 -98 -1408 -1355 -1410 -1353 -5 3 -473 1906 -473 1920 0 10 23 6 93
-15 50 -15 480 -139 955 -275z m-1028 -687 c131 -530 237 -964 236 -965 -2 -3
-1876 535 -1899 545 -15 6 111 132 700 699 395 380 719 690 721 688 3 -2 111
-437 242 -967z m-892 -864 c471 -135 912 -262 979 -281 l122 -36 -142 -137
c-666 -642 -1342 -1290 -1347 -1290 -5 0 -491 1966 -490 1983 0 4 5 7 11 7 5
0 396 -111 867 -246z"/>
</g>
</svg>
